<svg version="1.2" xmlns="http://www.w3.org/2000/svg" viewBox="0 0 4000 4000" width="200" height="200">
	<title>29mei_lion_head-ai</title>
	<defs>
		<linearGradient id="g1" x1="1422.8" y1="2445.3" x2="1445.9" y2="1130.2" gradientUnits="userSpaceOnUse">
			<stop offset="0" stop-color="#003780"/>
			<stop offset="1" stop-color="#29c5ff"/>
		</linearGradient>
	</defs>
	<style>
		.s0 { fill: #000000 } 
		.s1 { fill: url(#g1) } 
	</style>
	<g id="_Artboards_">
	</g>
	<g id="Layer 1">
		<g id="&lt;Group&gt;">
			<path id="&lt;Compound Path&gt;" fill-rule="evenodd" class="s0" d="m1921.8 1659.9c-55.7 101 23.4 125.2 23.4 125.2 9.9-12.9 11.4-26.8 11.4-26.8 165.1 183.5-228.9 170.5-142.8-4.4-28.2 6.6-24.5 46.2-24.5 46.2-57.1-110.6 27.8-158.2 27.8-158.2-50.5 15.8-58.2 54.2-58.2 54.2-71.7-93.2-9.3-179.8 69.4-233.9-27.9 1.4-68.9 39.1-68.9 39.1 121.9-164.8 164.6-30.6 240.9-22.7 76.4-7.9 119.1-142.1 240.9 22.7 0 0-41-37.7-68.8-39.1 78.6 54.1 141 140.7 69.4 233.9 0 0-7.7-38.4-58.2-54.2 0 0 84.9 47.6 27.8 158.2 0 0 3.7-39.6-24.5-46.2 86 174.9-307.9 187.9-142.8 4.4 0 0 1.5 13.9 11.3 26.8 0 0 79.1-24.2 23.5-125.2 53.3 112.8-210.4 112.8-157.1 0zm156-32.3c91.1 52 113.8-67.7 113.8-67.7 17.2-6.6 31.2 0.8 31.2 0.8-49.3-83.2-141 25.9-141 25.9-28.2-18.2-30.6 48.7-52-20.1 0 0-8 13.2-7.3 20.1l-22.2-79.4-22.1 79.4c0.7-6.9-7.4-20.1-7.4-20.1-21.3 68.8-23.8 1.9-51.9 20.1 0 0-91.7-109.1-141-25.9 0 0 13.9-7.4 31.1-0.8 0 0 22.7 119.7 113.9 67.7 0 0-13 24.5-16.6 29 3.8-3.9 35.1-34.6 68.6-35.9l-2.2 16.5c19.1-43.7 36.2-43.7 55.3 0l-2.2-16.5c33.4 1.3 64.4 31.6 68.2 35.5-3.6-4.5-16.2-28.6-16.2-28.6zm7.1-11.4c0 0 28-44.7 78.5-40.2 0 0 14.8 67.2-78.5 40.2zm-84.6 337c-19.9-2.2-59.1 1-59.1 1l-6.9 18.7-4.8-19.4-16.1 64.8c-59.3-108.7-1.4-122.8 13.9-83.1 0.7-27.8 73-19.1 73-19.1 0 0 72.3-8.7 73.1 19.1 15.2-39.7 73.2-25.6 13.9 83.1l-16.1-64.8-4.8 19.4-6.9-18.7c0 0-39.2-3.2-59.2-1zm0 143.1c-26.9-2.9-71.2 43-85.1 17.5v-63.3l23.1 44.7c-5.2-24.2 62-27.5 62-27.5 0 0 67.2 3.3 62.1 27.5l23.1-44.7v63.3c-14 25.5-58.2-20.4-85.2-17.5zm-49.8 190.2c-24.2 39.5-12.4 76.1-12.4 76.1-54.2-60-41.8-133.6-41.8-133.6-81.3 70.5-32.3-130.5-6.6-165.5-15.8 60.6 13.9 97.4 13.9 97.4 38.8-41 96.7-33.7 96.7-33.7 0 0 57.9-7.3 96.7 33.7 0 0 29.7-36.8 14-97.4 25.7 35 74.7 236-6.6 165.5 0 0 12.4 73.6-41.8 133.6 0 0 11.7-36.6-12.4-76.1 2.2 78.6-101.9 78.6-99.7 0zm-258.8-728.2c-79.1 147.9-220.8 117.9-220.8 117.9 44.3-13.3 44.3-309.9 295.8-220.4-30.8 30.8-75.3 151-165.1 94.1 39.2 41.3 90.1 8.4 90.1 8.4zm707.4-8.4c-89.8 56.9-134.3-63.3-165.1-94.1 251.5-89.5 251.4 207.1 295.8 220.4 0 0-141.7 30-220.8-117.9 0 0 50.9 32.9 90.1-8.4zm-734.2-182.3q17.8-12.4 36.7-23.4c43.9 1.5 91.8 11.3 101.6 59 2 10.2 2.5 25.2-5.5 32.6-33-35.5-65.2-25.6-65.2-25.6 0.8-21.2-41.2-47.6-67.6-42.6zm-34.8 26q8.7-7.1 17.7-13.8c-3.7 7.1-5 17.4-2.4 31.9-6.9-5.4-11.8-11.7-15.3-18.1zm270.7 1042.5c-26-4.4-51.5-10.5-76.2-18.2-117.6-57.4-262.1-94.9-214.7-276.1 18.2-69.8 67.7-139.2 41.5-214.1 0 116.6-81.7 110.7-101.1 238.7-128.8-130.6 13.1-306.8-116.4-268-24.1-207.7 156-155 246-279.7 54.8 42.9 45.2 164.8 44.1 177.6 2-18.3 18.9-45.8 18.9-45.8-5.4 88.8 142.1 140 22.7 344.1 58.6-42.4 73.2-146.4 73.2-146.4 3.9 161.1-157.4 346.9-29.3 228.4-85.1 135.8 23.6 173.4 91.3 259.5zm275.3-18.2c-24.8 7.7-50.2 13.8-76.2 18.2 67.6-86.1 176.3-123.7 91.3-259.5 128.1 118.5-33.2-67.3-29.3-228.4 0 0 14.6 104 73.2 146.4-119.5-204.1 28.1-255.3 22.7-344.1 0 0 16.9 27.5 18.9 45.8-1.2-12.8-10.8-134.7 44-177.6 90.1 124.7 270.1 72 246.1 279.7-129.5-38.8 12.3 137.4-116.5 268-19.4-128-101-122.1-101-238.7-26.2 74.9 23.3 144.3 41.5 214.1 47.3 181.2-97.1 218.7-214.7 276.1zm176.8-1038.1q9 6.7 17.7 13.8c-3.5 6.4-8.4 12.7-15.3 18.1 2.5-14.5 1.3-24.8-2.4-31.9zm-53.8-35.6q18.8 11 36.7 23.4c-26.4-5-68.4 21.4-67.6 42.6 0 0-32.2-9.9-65.2 25.6-8-7.4-7.6-22.4-5.5-32.6 9.7-47.7 57.6-57.5 101.6-59zm-227.5-76.8c28.2 3.4 55.8 8.8 82.7 16-13.1 13.4-29.7 35.8-42 70.9 0 0 60.6-44 143.7-33.1q6.6 3.1 13.1 6.5c-23.9 5.1-80.3 22.9-102.6 79.4 0 0-44.7-17.6-105.4 14.6 0 0 13.2-22.7 10.2-42.5-6.5 55.3-135.4 55.3-142 0-2.9 19.8 10.3 42.5 10.3 42.5-60.8-32.2-105.5-14.6-105.5-14.6-22.2-56.5-78.7-74.3-102.5-79.4q6.5-3.4 13-6.5c83.1-10.9 143.7 33.1 143.7 33.1-12.2-35.1-28.8-57.5-41.9-70.9 27.3-7.3 55.4-12.8 84.2-16.2 50 13.1 73.6 41.5 73.6 41.5 0 0 20.2-28.1 67.4-41.3zm-234.4 308.6c50.6-4.5 78.6 40.2 78.6 40.2-93.3 27-78.6-40.2-78.6-40.2z"/>
			<g id="&lt;Clip Group&gt;">
				<path id="&lt;Path&gt;" fill-rule="evenodd" class="s1" d="m1921.8 1643c-55.7 101 23.4 125.2 23.4 125.2 9.9-12.9 11.4-26.8 11.4-26.8 165.1 183.5-228.9 170.5-142.8-4.4-28.2 6.6-24.5 46.2-24.5 46.2-57.1-110.6 27.8-158.2 27.8-158.2-50.5 15.8-58.2 54.2-58.2 54.2-71.7-93.2-9.3-179.8 69.4-233.9-27.9 1.4-68.9 39.1-68.9 39.1 121.9-164.8 164.6-30.6 240.9-22.7 76.4-7.9 119.1-142.1 240.9 22.7 0 0-41-37.7-68.8-39.1 78.6 54.1 141 140.7 69.4 233.9 0 0-7.7-38.4-58.2-54.2 0 0 84.9 47.6 27.8 158.2 0 0 3.7-39.6-24.5-46.2 86 174.9-307.9 187.9-142.8 4.4 0 0 1.5 13.9 11.3 26.8 0 0 79.1-24.2 23.5-125.2 53.3 112.8-210.4 112.8-157.1 0zm156-32.3c91.1 52 113.8-67.7 113.8-67.7 17.2-6.6 31.2 0.7 31.2 0.7-49.3-83.1-141 26-141 26-28.2-18.2-30.6 48.7-52-20.1 0 0-8 13.2-7.3 20.1l-22.2-79.4-22.1 79.4c0.7-6.9-7.4-20.1-7.4-20.1-21.3 68.8-23.8 1.9-51.9 20.1 0 0-91.7-109.1-141-26 0 0 13.9-7.3 31.1-0.7 0 0 22.7 119.7 113.9 67.7 0 0-13 24.5-16.6 29 3.8-4 35.1-34.6 68.6-35.9l-2.2 16.5c19.1-43.7 36.2-43.7 55.3 0l-2.2-16.5c33.4 1.3 64.4 31.6 68.2 35.5-3.6-4.5-16.2-28.6-16.2-28.6zm7.1-11.4c0 0 28-44.7 78.5-40.2 0 0 14.8 67.2-78.5 40.2zm-84.6 337c-19.9-2.2-59.1 1-59.1 1l-6.9 18.7-4.8-19.4-16.1 64.8c-59.3-108.7-1.4-122.8 13.9-83.1 0.7-27.8 73-19.1 73-19.1 0 0 72.3-8.7 73.1 19.1 15.2-39.7 73.2-25.6 13.9 83.1l-16.1-64.8-4.8 19.4-6.9-18.7c0 0-39.2-3.2-59.2-1zm0 143.1c-26.9-2.9-71.2 43-85.1 17.5v-63.3l23.1 44.7c-5.2-24.2 62-27.5 62-27.5 0 0 67.2 3.3 62.1 27.5l23.1-44.7v63.3c-14 25.5-58.2-20.4-85.2-17.5zm-49.8 190.2c-24.2 39.5-12.4 76.1-12.4 76.1-54.2-60-41.8-133.6-41.8-133.6-81.3 70.5-32.3-130.5-6.6-165.5-15.8 60.6 13.9 97.4 13.9 97.4 38.8-41 96.7-33.7 96.7-33.7 0 0 57.9-7.3 96.7 33.7 0 0 29.7-36.8 14-97.4 25.7 35 74.7 236-6.6 165.5 0 0 12.4 73.6-41.8 133.6 0 0 11.7-36.6-12.4-76.1 2.2 78.6-101.9 78.6-99.7 0zm-258.8-728.2c-79.1 147.9-220.8 117.9-220.8 117.9 44.3-13.3 44.3-309.9 295.8-220.4-30.8 30.8-75.3 151-165.1 94.1 39.2 41.3 90.1 8.4 90.1 8.4zm707.4-8.4c-89.8 56.9-134.3-63.3-165.1-94.1 251.5-89.5 251.4 207.1 295.8 220.4 0 0-141.7 30-220.8-117.9 0 0 50.9 32.9 90.1-8.4zm-734.2-182.3q17.8-12.4 36.7-23.4c43.9 1.5 91.8 11.3 101.6 59 2 10.2 2.5 25.2-5.5 32.6-33-35.5-65.2-25.6-65.2-25.6 0.8-21.2-41.2-47.7-67.6-42.6zm-34.8 26q8.7-7.1 17.7-13.8c-3.7 7.1-5 17.4-2.4 31.9-6.9-5.5-11.8-11.7-15.3-18.1zm270.7 1042.5c-26-4.4-51.5-10.5-76.2-18.2-117.6-57.4-262.1-94.9-214.7-276.2 18.2-69.7 67.7-139.2 41.5-214 0 116.6-81.7 110.7-101.1 238.7-128.8-130.6 13.1-306.8-116.4-268-24.1-207.7 156-155 246-279.7 54.8 42.9 45.2 164.8 44.1 177.6 2-18.3 18.9-45.8 18.9-45.8-5.4 88.8 142.1 140 22.7 344.1 58.6-42.4 73.2-146.4 73.2-146.4 3.9 161.1-157.4 346.9-29.3 228.4-85.1 135.8 23.6 173.4 91.3 259.5zm275.3-18.2c-24.8 7.7-50.2 13.8-76.2 18.2 67.6-86.1 176.3-123.7 91.3-259.5 128.1 118.5-33.2-67.3-29.3-228.4 0 0 14.6 104 73.2 146.4-119.5-204.1 28.1-255.3 22.7-344.1 0 0 16.9 27.5 18.9 45.8-1.2-12.8-10.8-134.7 44-177.6 90.1 124.7 270.1 72 246.1 279.7-129.5-38.8 12.3 137.4-116.5 268-19.4-128-101-122.1-101-238.7-26.2 74.8 23.3 144.3 41.5 214 47.3 181.3-97.1 218.8-214.7 276.2zm176.8-1038.1q9 6.7 17.7 13.8c-3.5 6.4-8.4 12.6-15.3 18.1 2.5-14.5 1.3-24.8-2.4-31.9zm-53.8-35.6q18.8 11 36.7 23.4c-26.4-5-68.4 21.4-67.6 42.6 0 0-32.2-9.9-65.2 25.6-8-7.4-7.6-22.4-5.5-32.6 9.7-47.7 57.6-57.5 101.6-59zm-227.5-76.8c28.2 3.4 55.8 8.8 82.7 16-13.1 13.4-29.7 35.8-42 70.9 0 0 60.6-44 143.7-33.1q6.6 3.1 13.1 6.5c-23.9 5.1-80.3 22.9-102.6 79.4 0 0-44.7-17.6-105.4 14.6 0 0 13.2-22.7 10.2-42.5-6.5 55.3-135.4 55.3-142 0-2.9 19.8 10.3 42.5 10.3 42.5-60.8-32.2-105.5-14.6-105.5-14.6-22.2-56.5-78.7-74.3-102.5-79.4q6.5-3.4 13-6.5c83.1-10.9 143.7 33.1 143.7 33.1-12.2-35.1-28.8-57.5-41.9-70.9 27.3-7.3 55.4-12.8 84.2-16.2 50 13.1 73.6 41.5 73.6 41.5 0 0 20.2-28.1 67.4-41.3zm-234.4 308.6c50.6-4.5 78.6 40.2 78.6 40.2-93.3 27-78.6-40.2-78.6-40.2z"/>
			</g>
		</g>
	</g>
</svg>